{
	"patcher" : 	{
		"fileversion" : 1,
		"appversion" : 		{
			"major" : 8,
			"minor" : 5,
			"revision" : 5,
			"architecture" : "x64",
			"modernui" : 1
		}
,
		"classnamespace" : "box",
		"rect" : [ 0.0, 846.0, 280.0, 271.0 ],
		"bglocked" : 0,
		"openinpresentation" : 1,
		"default_fontsize" : 12.0,
		"default_fontface" : 0,
		"default_fontname" : "Arial",
		"gridonopen" : 1,
		"gridsize" : [ 15.0, 15.0 ],
		"gridsnaponopen" : 1,
		"objectsnaponopen" : 1,
		"statusbarvisible" : 2,
		"toolbarvisible" : 0,
		"lefttoolbarpinned" : 0,
		"toptoolbarpinned" : 0,
		"righttoolbarpinned" : 0,
		"bottomtoolbarpinned" : 0,
		"toolbars_unpinned_last_save" : 0,
		"tallnewobj" : 0,
		"boxanimatetime" : 200,
		"enablehscroll" : 1,
		"enablevscroll" : 1,
		"devicewidth" : 0.0,
		"description" : "",
		"digest" : "",
		"tags" : "",
		"style" : "",
		"subpatcher_template" : "",
		"assistshowspatchername" : 0,
		"boxes" : [ 			{
				"box" : 				{
					"id" : "obj-75",
					"maxclass" : "newobj",
					"numinlets" : 1,
					"numoutlets" : 1,
					"outlettype" : [ "" ],
					"patcher" : 					{
						"fileversion" : 1,
						"appversion" : 						{
							"major" : 8,
							"minor" : 5,
							"revision" : 5,
							"architecture" : "x64",
							"modernui" : 1
						}
,
						"classnamespace" : "box",
						"rect" : [ 793.0, 349.0, 440.0, 341.0 ],
						"bglocked" : 0,
						"openinpresentation" : 0,
						"default_fontsize" : 12.0,
						"default_fontface" : 0,
						"default_fontname" : "Arial",
						"gridonopen" : 1,
						"gridsize" : [ 15.0, 15.0 ],
						"gridsnaponopen" : 1,
						"objectsnaponopen" : 1,
						"statusbarvisible" : 2,
						"toolbarvisible" : 0,
						"lefttoolbarpinned" : 0,
						"toptoolbarpinned" : 0,
						"righttoolbarpinned" : 0,
						"bottomtoolbarpinned" : 0,
						"toolbars_unpinned_last_save" : 0,
						"tallnewobj" : 0,
						"boxanimatetime" : 200,
						"enablehscroll" : 1,
						"enablevscroll" : 1,
						"devicewidth" : 0.0,
						"description" : "",
						"digest" : "",
						"tags" : "",
						"style" : "",
						"subpatcher_template" : "",
						"assistshowspatchername" : 0,
						"boxes" : [ 							{
								"box" : 								{
									"id" : "obj-5",
									"maxclass" : "message",
									"numinlets" : 2,
									"numoutlets" : 1,
									"outlettype" : [ "" ],
									"patching_rect" : [ 174.333333333333314, 88.0, 29.5, 22.0 ],
									"text" : "1"
								}

							}
, 							{
								"box" : 								{
									"id" : "obj-4",
									"maxclass" : "message",
									"numinlets" : 2,
									"numoutlets" : 1,
									"outlettype" : [ "" ],
									"patching_rect" : [ 285.666666666666629, 88.0, 29.5, 22.0 ],
									"text" : "0"
								}

							}
, 							{
								"box" : 								{
									"id" : "obj-2",
									"maxclass" : "newobj",
									"numinlets" : 4,
									"numoutlets" : 4,
									"outlettype" : [ "", "", "", "" ],
									"patching_rect" : [ 63.0, 55.0, 353.0, 22.0 ],
									"text" : "route /window/openorclose /window/open /window/close"
								}

							}
, 							{
								"box" : 								{
									"comment" : "",
									"id" : "obj-1",
									"index" : 1,
									"maxclass" : "outlet",
									"numinlets" : 1,
									"numoutlets" : 0,
									"patching_rect" : [ 62.5, 269.0, 30.0, 30.0 ]
								}

							}
, 							{
								"box" : 								{
									"id" : "obj-59",
									"maxclass" : "message",
									"numinlets" : 2,
									"numoutlets" : 1,
									"outlettype" : [ "" ],
									"patching_rect" : [ 62.5, 221.0, 45.0, 22.0 ],
									"text" : "back"
								}

							}
, 							{
								"box" : 								{
									"id" : "obj-57",
									"maxclass" : "message",
									"numinlets" : 2,
									"numoutlets" : 1,
									"outlettype" : [ "" ],
									"patching_rect" : [ 112.0, 221.0, 33.0, 22.0 ],
									"text" : "front"
								}

							}
, 							{
								"box" : 								{
									"id" : "obj-54",
									"maxclass" : "newobj",
									"numinlets" : 3,
									"numoutlets" : 3,
									"outlettype" : [ "bang", "bang", "" ],
									"patching_rect" : [ 62.5, 179.0, 118.0, 22.0 ],
									"text" : "sel 0 1"
								}

							}
, 							{
								"box" : 								{
									"id" : "obj-50",
									"maxclass" : "toggle",
									"numinlets" : 1,
									"numoutlets" : 1,
									"outlettype" : [ "int" ],
									"parameter_enable" : 0,
									"patching_rect" : [ 63.0, 133.0, 24.0, 24.0 ]
								}

							}
, 							{
								"box" : 								{
									"comment" : "",
									"id" : "obj-74",
									"index" : 1,
									"maxclass" : "inlet",
									"numinlets" : 0,
									"numoutlets" : 1,
									"outlettype" : [ "" ],
									"patching_rect" : [ 63.0, 12.0, 30.0, 30.0 ]
								}

							}
 ],
						"lines" : [ 							{
								"patchline" : 								{
									"destination" : [ "obj-4", 0 ],
									"source" : [ "obj-2", 2 ]
								}

							}
, 							{
								"patchline" : 								{
									"destination" : [ "obj-5", 0 ],
									"source" : [ "obj-2", 1 ]
								}

							}
, 							{
								"patchline" : 								{
									"destination" : [ "obj-50", 0 ],
									"source" : [ "obj-2", 0 ]
								}

							}
, 							{
								"patchline" : 								{
									"destination" : [ "obj-50", 0 ],
									"midpoints" : [ 295.166666666666629, 120.0, 72.5, 120.0 ],
									"source" : [ "obj-4", 0 ]
								}

							}
, 							{
								"patchline" : 								{
									"destination" : [ "obj-50", 0 ],
									"midpoints" : [ 183.833333333333314, 120.0, 72.5, 120.0 ],
									"source" : [ "obj-5", 0 ]
								}

							}
, 							{
								"patchline" : 								{
									"destination" : [ "obj-54", 0 ],
									"source" : [ "obj-50", 0 ]
								}

							}
, 							{
								"patchline" : 								{
									"destination" : [ "obj-57", 0 ],
									"source" : [ "obj-54", 1 ]
								}

							}
, 							{
								"patchline" : 								{
									"destination" : [ "obj-59", 0 ],
									"source" : [ "obj-54", 0 ]
								}

							}
, 							{
								"patchline" : 								{
									"destination" : [ "obj-1", 0 ],
									"source" : [ "obj-57", 0 ]
								}

							}
, 							{
								"patchline" : 								{
									"destination" : [ "obj-1", 0 ],
									"source" : [ "obj-59", 0 ]
								}

							}
, 							{
								"patchline" : 								{
									"destination" : [ "obj-2", 0 ],
									"source" : [ "obj-74", 0 ]
								}

							}
 ]
					}
,
					"patching_rect" : [ 754.166666666666629, 216.0, 85.0, 22.0 ],
					"saved_object_attributes" : 					{
						"description" : "",
						"digest" : "",
						"globalpatchername" : "",
						"tags" : ""
					}
,
					"text" : "p window",
					"varname" : "/window/openorclose"
				}

			}
, 			{
				"box" : 				{
					"id" : "obj-27",
					"maxclass" : "newobj",
					"numinlets" : 1,
					"numoutlets" : 2,
					"outlettype" : [ "", "" ],
					"patching_rect" : [ 754.0, 327.0, 67.0, 22.0 ],
					"save" : [ "#N", "thispatcher", ";", "#Q", "end", ";" ],
					"text" : "thispatcher"
				}

			}
, 			{
				"box" : 				{
					"id" : "obj-3",
					"maxclass" : "message",
					"numinlets" : 2,
					"numoutlets" : 1,
					"outlettype" : [ "" ],
					"patching_rect" : [ 137.0, 71.0, 113.0, 22.0 ],
					"text" : "read"
				}

			}
, 			{
				"box" : 				{
					"id" : "obj-8",
					"maxclass" : "live.text",
					"mode" : 0,
					"numinlets" : 1,
					"numoutlets" : 2,
					"outlettype" : [ "", "" ],
					"parameter_enable" : 1,
					"patching_rect" : [ 137.0, 45.0, 44.0, 15.0 ],
					"presentation" : 1,
					"presentation_rect" : [ 4.5, 3.0, 44.0, 15.0 ],
					"saved_attribute_attributes" : 					{
						"valueof" : 						{
							"parameter_enum" : [ "val1", "val2" ],
							"parameter_longname" : "live.text[5]",
							"parameter_mmax" : 1,
							"parameter_shortname" : "live.text",
							"parameter_type" : 2
						}

					}
,
					"text" : "Read",
					"varname" : "live.text[2]"
				}

			}
, 			{
				"box" : 				{
					"id" : "obj-28",
					"maxclass" : "spat5.osc.view",
					"numinlets" : 1,
					"numoutlets" : 3,
					"outlettype" : [ "", "int", "" ],
					"parameter_enable" : 0,
					"patching_rect" : [ 316.0, 1050.0, 128.0, 64.0 ],
					"presentation" : 1,
					"presentation_rect" : [ 4.5, 22.0, 273.0, 244.0 ]
				}

			}
, 			{
				"box" : 				{
					"id" : "obj-20",
					"maxclass" : "newobj",
					"numinlets" : 2,
					"numoutlets" : 2,
					"outlettype" : [ "", "" ],
					"patching_rect" : [ 41.166666666666657, 108.0, 732.0, 22.0 ],
					"text" : "route read"
				}

			}
, 			{
				"box" : 				{
					"id" : "obj-10",
					"maxclass" : "newobj",
					"numinlets" : 1,
					"numoutlets" : 1,
					"outlettype" : [ "bang" ],
					"patching_rect" : [ 40.0, 216.0, 29.0, 22.0 ],
					"text" : "thru"
				}

			}
, 			{
				"box" : 				{
					"id" : "obj-9",
					"maxclass" : "newobj",
					"numinlets" : 1,
					"numoutlets" : 3,
					"outlettype" : [ "", "int", "" ],
					"patching_rect" : [ 316.0, 1005.0, 100.0, 22.0 ],
					"text" : "spat5.osc.collect"
				}

			}
, 			{
				"box" : 				{
					"id" : "obj-38",
					"maxclass" : "message",
					"numinlets" : 2,
					"numoutlets" : 1,
					"outlettype" : [ "" ],
					"patching_rect" : [ 402.0, 208.0, 113.0, 22.0 ],
					"text" : "/status/openorclose"
				}

			}
, 			{
				"box" : 				{
					"id" : "obj-39",
					"maxclass" : "live.text",
					"mode" : 0,
					"numinlets" : 1,
					"numoutlets" : 2,
					"outlettype" : [ "", "" ],
					"parameter_enable" : 1,
					"patching_rect" : [ 402.0, 182.0, 44.0, 15.0 ],
					"presentation" : 1,
					"presentation_rect" : [ 50.5, 3.0, 44.0, 15.0 ],
					"saved_attribute_attributes" : 					{
						"valueof" : 						{
							"parameter_enum" : [ "val1", "val2" ],
							"parameter_longname" : "live.text[2]",
							"parameter_mmax" : 1,
							"parameter_shortname" : "live.text",
							"parameter_type" : 2
						}

					}
,
					"text" : "Status",
					"varname" : "live.text[1]"
				}

			}
, 			{
				"box" : 				{
					"id" : "obj-15",
					"maxclass" : "newobj",
					"numinlets" : 2,
					"numoutlets" : 2,
					"outlettype" : [ "", "" ],
					"patching_rect" : [ 185.0, 350.0, 100.0, 22.0 ],
					"text" : "route symbol"
				}

			}
, 			{
				"box" : 				{
					"id" : "obj-22",
					"maxclass" : "message",
					"numinlets" : 2,
					"numoutlets" : 1,
					"outlettype" : [ "" ],
					"patching_rect" : [ 489.5, 702.0, 29.5, 22.0 ],
					"text" : "2"
				}

			}
, 			{
				"box" : 				{
					"id" : "obj-19",
					"maxclass" : "message",
					"numinlets" : 2,
					"numoutlets" : 1,
					"outlettype" : [ "" ],
					"patching_rect" : [ 408.5, 718.0, 29.5, 22.0 ],
					"text" : "1"
				}

			}
, 			{
				"box" : 				{
					"id" : "obj-16",
					"maxclass" : "newobj",
					"numinlets" : 2,
					"numoutlets" : 2,
					"outlettype" : [ "bang", "" ],
					"patching_rect" : [ 408.5, 673.0, 100.0, 22.0 ],
					"text" : "sel 1"
				}

			}
, 			{
				"box" : 				{
					"id" : "obj-14",
					"maxclass" : "newobj",
					"numinlets" : 2,
					"numoutlets" : 2,
					"outlettype" : [ "", "" ],
					"patching_rect" : [ 266.5, 787.0, 106.0, 22.0 ],
					"text" : "gate 2"
				}

			}
, 			{
				"box" : 				{
					"id" : "obj-13",
					"maxclass" : "newobj",
					"numinlets" : 2,
					"numoutlets" : 2,
					"outlettype" : [ "", "" ],
					"patching_rect" : [ 408.5, 639.0, 100.0, 22.0 ],
					"text" : "zl.len"
				}

			}
, 			{
				"box" : 				{
					"id" : "obj-12",
					"maxclass" : "newobj",
					"numinlets" : 1,
					"numoutlets" : 2,
					"outlettype" : [ "", "" ],
					"patching_rect" : [ 266.5, 610.0, 161.0, 22.0 ],
					"text" : "t l l"
				}

			}
, 			{
				"box" : 				{
					"id" : "obj-7",
					"maxclass" : "newobj",
					"numinlets" : 1,
					"numoutlets" : 1,
					"outlettype" : [ "" ],
					"patching_rect" : [ 266.5, 827.0, 71.0, 22.0 ],
					"text" : "fromsymbol"
				}

			}
, 			{
				"box" : 				{
					"id" : "obj-6",
					"maxclass" : "newobj",
					"numinlets" : 2,
					"numoutlets" : 1,
					"outlettype" : [ "" ],
					"patching_rect" : [ 185.5, 859.0, 100.0, 22.0 ],
					"text" : "join"
				}

			}
, 			{
				"box" : 				{
					"id" : "obj-5",
					"maxclass" : "newobj",
					"numinlets" : 2,
					"numoutlets" : 2,
					"outlettype" : [ "", "" ],
					"patching_rect" : [ 185.5, 572.0, 100.0, 22.0 ],
					"text" : "zl slice 1"
				}

			}
, 			{
				"box" : 				{
					"fontname" : "Arial",
					"fontsize" : 13.0,
					"id" : "obj-55",
					"maxclass" : "message",
					"numinlets" : 2,
					"numoutlets" : 1,
					"outlettype" : [ "" ],
					"patching_rect" : [ 185.5, 207.5, 44.0, 23.0 ],
					"text" : "dump"
				}

			}
, 			{
				"box" : 				{
					"id" : "obj-1",
					"maxclass" : "newobj",
					"numinlets" : 1,
					"numoutlets" : 4,
					"outlettype" : [ "bang", "bang", "bang", "clear" ],
					"patching_rect" : [ 41.166666666666657, 154.0, 453.000000000000057, 22.0 ],
					"text" : "t b b b clear"
				}

			}
, 			{
				"box" : 				{
					"id" : "obj-24",
					"maxclass" : "newobj",
					"numinlets" : 1,
					"numoutlets" : 1,
					"outlettype" : [ "" ],
					"patching_rect" : [ 185.0, 461.0, 100.0, 22.0 ],
					"text" : "prepend"
				}

			}
, 			{
				"box" : 				{
					"id" : "obj-23",
					"maxclass" : "message",
					"numinlets" : 2,
					"numoutlets" : 1,
					"outlettype" : [ "" ],
					"patching_rect" : [ 408.5, 398.0, 57.0, 22.0 ],
					"text" : "set rows"
				}

			}
, 			{
				"box" : 				{
					"id" : "obj-21",
					"linecount" : 2,
					"maxclass" : "message",
					"numinlets" : 2,
					"numoutlets" : 1,
					"outlettype" : [ "" ],
					"patching_rect" : [ 327.5, 398.0, 57.0, 35.0 ],
					"text" : "set columns"
				}

			}
, 			{
				"box" : 				{
					"id" : "obj-17",
					"maxclass" : "newobj",
					"numinlets" : 2,
					"numoutlets" : 2,
					"outlettype" : [ "bang", "" ],
					"patching_rect" : [ 327.5, 362.0, 100.0, 22.0 ],
					"text" : "sel 0"
				}

			}
, 			{
				"box" : 				{
					"id" : "obj-11",
					"maxclass" : "newobj",
					"numinlets" : 2,
					"numoutlets" : 1,
					"outlettype" : [ "" ],
					"patching_rect" : [ 185.0, 506.0, 114.0, 22.0 ],
					"saved_object_attributes" : 					{
						"filename" : "az.osc.csv2osc.js",
						"parameter_enable" : 0
					}
,
					"text" : "js az.osc.csv2osc.js"
				}

			}
, 			{
				"box" : 				{
					"id" : "obj-56",
					"maxclass" : "newobj",
					"numinlets" : 1,
					"numoutlets" : 4,
					"outlettype" : [ "", "", "", "" ],
					"patching_rect" : [ 185.0, 305.0, 446.499999999999886, 22.0 ],
					"saved_object_attributes" : 					{
						"embed" : 0,
						"precision" : 6
					}
,
					"text" : "coll coll4help"
				}

			}
, 			{
				"box" : 				{
					"id" : "obj-51",
					"maxclass" : "message",
					"numinlets" : 2,
					"numoutlets" : 1,
					"outlettype" : [ "" ],
					"patching_rect" : [ 330.5, 207.5, 42.0, 22.0 ],
					"text" : "read"
				}

			}
, 			{
				"box" : 				{
					"id" : "obj-47",
					"maxclass" : "newobj",
					"numinlets" : 1,
					"numoutlets" : 1,
					"outlettype" : [ "" ],
					"patching_rect" : [ 330.5, 251.0, 217.0, 22.0 ],
					"text" : "az.osc.csv2coll"
				}

			}
, 			{
				"box" : 				{
					"comment" : "",
					"id" : "obj-2",
					"index" : 1,
					"maxclass" : "inlet",
					"numinlets" : 0,
					"numoutlets" : 1,
					"outlettype" : [ "" ],
					"patching_rect" : [ 41.166666666666657, 37.5, 30.0, 30.0 ]
				}

			}
, 			{
				"box" : 				{
					"comment" : "",
					"id" : "obj-4",
					"index" : 1,
					"maxclass" : "outlet",
					"numinlets" : 1,
					"numoutlets" : 0,
					"patching_rect" : [ 185.5, 927.0, 30.0, 30.0 ]
				}

			}
 ],
		"lines" : [ 			{
				"patchline" : 				{
					"destination" : [ "obj-10", 0 ],
					"midpoints" : [ 484.666666666666742, 191.0, 49.5, 191.0 ],
					"source" : [ "obj-1", 3 ]
				}

			}
, 			{
				"patchline" : 				{
					"destination" : [ "obj-10", 0 ],
					"source" : [ "obj-1", 0 ]
				}

			}
, 			{
				"patchline" : 				{
					"destination" : [ "obj-51", 0 ],
					"source" : [ "obj-1", 2 ]
				}

			}
, 			{
				"patchline" : 				{
					"destination" : [ "obj-55", 0 ],
					"source" : [ "obj-1", 1 ]
				}

			}
, 			{
				"patchline" : 				{
					"destination" : [ "obj-9", 0 ],
					"midpoints" : [ 49.5, 991.0, 325.5, 991.0 ],
					"source" : [ "obj-10", 0 ]
				}

			}
, 			{
				"patchline" : 				{
					"destination" : [ "obj-5", 0 ],
					"source" : [ "obj-11", 0 ]
				}

			}
, 			{
				"patchline" : 				{
					"destination" : [ "obj-13", 0 ],
					"source" : [ "obj-12", 1 ]
				}

			}
, 			{
				"patchline" : 				{
					"destination" : [ "obj-14", 1 ],
					"source" : [ "obj-12", 0 ]
				}

			}
, 			{
				"patchline" : 				{
					"destination" : [ "obj-16", 0 ],
					"source" : [ "obj-13", 0 ]
				}

			}
, 			{
				"patchline" : 				{
					"destination" : [ "obj-6", 1 ],
					"midpoints" : [ 363.0, 852.0, 285.0, 852.0, 285.0, 853.0, 276.0, 853.0 ],
					"source" : [ "obj-14", 1 ]
				}

			}
, 			{
				"patchline" : 				{
					"destination" : [ "obj-7", 0 ],
					"source" : [ "obj-14", 0 ]
				}

			}
, 			{
				"patchline" : 				{
					"destination" : [ "obj-24", 0 ],
					"source" : [ "obj-15", 0 ]
				}

			}
, 			{
				"patchline" : 				{
					"destination" : [ "obj-19", 0 ],
					"source" : [ "obj-16", 0 ]
				}

			}
, 			{
				"patchline" : 				{
					"destination" : [ "obj-22", 0 ],
					"source" : [ "obj-16", 1 ]
				}

			}
, 			{
				"patchline" : 				{
					"destination" : [ "obj-21", 0 ],
					"source" : [ "obj-17", 0 ]
				}

			}
, 			{
				"patchline" : 				{
					"destination" : [ "obj-23", 0 ],
					"source" : [ "obj-17", 1 ]
				}

			}
, 			{
				"patchline" : 				{
					"destination" : [ "obj-14", 0 ],
					"midpoints" : [ 418.0, 772.0, 276.0, 772.0 ],
					"source" : [ "obj-19", 0 ]
				}

			}
, 			{
				"patchline" : 				{
					"destination" : [ "obj-20", 0 ],
					"source" : [ "obj-2", 0 ]
				}

			}
, 			{
				"patchline" : 				{
					"destination" : [ "obj-1", 0 ],
					"source" : [ "obj-20", 0 ]
				}

			}
, 			{
				"patchline" : 				{
					"destination" : [ "obj-75", 0 ],
					"source" : [ "obj-20", 1 ]
				}

			}
, 			{
				"patchline" : 				{
					"destination" : [ "obj-24", 0 ],
					"midpoints" : [ 337.0, 448.0, 194.5, 448.0 ],
					"source" : [ "obj-21", 0 ]
				}

			}
, 			{
				"patchline" : 				{
					"destination" : [ "obj-14", 0 ],
					"midpoints" : [ 499.0, 772.0, 276.0, 772.0 ],
					"source" : [ "obj-22", 0 ]
				}

			}
, 			{
				"patchline" : 				{
					"destination" : [ "obj-24", 0 ],
					"midpoints" : [ 418.0, 448.0, 194.5, 448.0 ],
					"source" : [ "obj-23", 0 ]
				}

			}
, 			{
				"patchline" : 				{
					"destination" : [ "obj-11", 0 ],
					"source" : [ "obj-24", 0 ]
				}

			}
, 			{
				"patchline" : 				{
					"destination" : [ "obj-20", 0 ],
					"source" : [ "obj-3", 0 ]
				}

			}
, 			{
				"patchline" : 				{
					"destination" : [ "obj-47", 0 ],
					"source" : [ "obj-38", 0 ]
				}

			}
, 			{
				"patchline" : 				{
					"destination" : [ "obj-38", 0 ],
					"source" : [ "obj-39", 0 ]
				}

			}
, 			{
				"patchline" : 				{
					"destination" : [ "obj-12", 0 ],
					"source" : [ "obj-5", 1 ]
				}

			}
, 			{
				"patchline" : 				{
					"destination" : [ "obj-6", 0 ],
					"source" : [ "obj-5", 0 ]
				}

			}
, 			{
				"patchline" : 				{
					"destination" : [ "obj-47", 0 ],
					"source" : [ "obj-51", 0 ]
				}

			}
, 			{
				"patchline" : 				{
					"destination" : [ "obj-56", 0 ],
					"source" : [ "obj-55", 0 ]
				}

			}
, 			{
				"patchline" : 				{
					"destination" : [ "obj-15", 0 ],
					"source" : [ "obj-56", 0 ]
				}

			}
, 			{
				"patchline" : 				{
					"destination" : [ "obj-17", 0 ],
					"source" : [ "obj-56", 1 ]
				}

			}
, 			{
				"patchline" : 				{
					"destination" : [ "obj-4", 0 ],
					"order" : 1,
					"source" : [ "obj-6", 0 ]
				}

			}
, 			{
				"patchline" : 				{
					"destination" : [ "obj-9", 0 ],
					"order" : 0,
					"source" : [ "obj-6", 0 ]
				}

			}
, 			{
				"patchline" : 				{
					"destination" : [ "obj-6", 1 ],
					"source" : [ "obj-7", 0 ]
				}

			}
, 			{
				"patchline" : 				{
					"destination" : [ "obj-27", 0 ],
					"source" : [ "obj-75", 0 ]
				}

			}
, 			{
				"patchline" : 				{
					"destination" : [ "obj-3", 0 ],
					"source" : [ "obj-8", 0 ]
				}

			}
, 			{
				"patchline" : 				{
					"destination" : [ "obj-28", 0 ],
					"source" : [ "obj-9", 0 ]
				}

			}
 ]
	}

}
